<?xml version="1.0" encoding="UTF-8" standalone="no"?>
<!-- Created with Inkscape (http://www.inkscape.org/) -->

<svg
   id="svg1"
   sodipodi:docname="wB.svg"
   inkscape:export-filename="C:\joanna\Gfx\drawings_vector\admin\thumbs\Igor Krizanovskij\chess_set_symbols_igor_k_01_ok.png"
   viewBox="0 0 83.399 89.466"
   sodipodi:version="0.32"
   inkscape:export-xdpi="51.457458"
   version="1.0"
   inkscape:output_extension="org.inkscape.output.svg.inkscape"
   inkscape:export-ydpi="51.457458"
   inkscape:version="1.3 (0e150ed6c4, 2023-07-21)"
   xmlns:inkscape="http://www.inkscape.org/namespaces/inkscape"
   xmlns:sodipodi="http://sodipodi.sourceforge.net/DTD/sodipodi-0.dtd"
   xmlns="http://www.w3.org/2000/svg"
   xmlns:svg="http://www.w3.org/2000/svg"
   xmlns:rdf="http://www.w3.org/1999/02/22-rdf-syntax-ns#"
   xmlns:cc="http://creativecommons.org/ns#"
   xmlns:dc="http://purl.org/dc/elements/1.1/">
  <defs
     id="defs1" />
  <sodipodi:namedview
     id="base"
     bordercolor="#666666"
     inkscape:pageshadow="2"
     inkscape:window-width="1920"
     pagecolor="#ffffff"
     inkscape:zoom="6.4046505"
     inkscape:window-x="0"
     showgrid="false"
     borderopacity="1.0"
     inkscape:current-layer="layer1"
     inkscape:cx="41.766526"
     inkscape:cy="44.655052"
     inkscape:window-y="0"
     inkscape:window-height="1136"
     inkscape:pageopacity="0.0"
     inkscape:showpageshadow="2"
     inkscape:pagecheckerboard="0"
     inkscape:deskcolor="#d1d1d1"
     inkscape:window-maximized="1" />
  <g
     id="layer1"
     inkscape:label="Layer 1"
     inkscape:groupmode="layer"
     transform="translate(-571.36 -212.65)">
    <path
       id="path1700"
       style="fill:#000000"
       d="m613.06 264.16c-6.02 0-10.71-0.25-14.07-0.77 0.6 1.2 0.9 2.24 0.9 3.1 0 1.29-0.25 2.36-0.77 3.22 2.49-0.77 7.14-1.16 13.94-1.16s11.45 0.39 13.94 1.16c-0.51-0.86-0.77-1.93-0.77-3.22 0-1.04 0.26-2.07 0.77-3.1-4.04 0.52-8.69 0.77-13.94 0.77m0-46.73c-1.81 0-3.05 0.82-3.74 2.45-0.17 0.43-0.26 0.86-0.26 1.29 0 1.9 0.95 3.14 2.84 3.75 0.34 0.08 0.73 0.13 1.16 0.13 1.98 0 3.27-0.91 3.87-2.71 0.09-0.35 0.13-0.74 0.13-1.17 0-1.72-0.86-2.88-2.58-3.48-0.51-0.17-0.99-0.26-1.42-0.26m0 54.87c-3.27 0-7.49 0.3-12.65 0.9-1.46 0.17-2.32 0.99-2.58 2.45 0 1.04 2.36 1.68 7.1 1.94-0.43-0.09-0.26-0.13 0.51-0.13h7.62c10.07 0 15.11-0.6 15.11-1.81 0-1.98-2.5-3.05-7.49-3.22h-3.75c-1.11 0-2.06-0.05-2.84-0.13h-1.03m-0.13-11.88c9.64 0 15.54-0.9 17.69-2.71 1.46-1.12 2.54-4.09 3.23-8.91-0.43-4.3-3.23-8.43-8.39-12.39-4.82-3.79-9.04-5.9-12.66-6.33-3.35 0.43-7.44 2.54-12.26 6.33-5.08 3.96-7.83 8.09-8.26 12.39 0.6 4.48 1.55 7.32 2.84 8.52 0.34 0.35 0.73 0.65 1.16 0.9 2.15 1.47 7.7 2.2 16.65 2.2m-2.19-6.33v-5.68h-4.39v-5.03h4.39v-5.55h4.65v5.55h4.38v5.03h-4.38v5.68h-4.65m2.06 26.34c-0.77 0-3.05 1.51-6.84 4.52-2.67 1.81-6.97 2.88-12.91 3.23-4.3 0-7.74 0.21-10.33 0.64-2.75 0.6-4.13 1.77-4.13 3.49 0.26 1.72 1.16 2.58 2.71 2.58l6.85-1.03c4.47 0 9.16-0.61 14.07-1.81 5.59-1.46 9.21-3.79 10.84-6.97 2.33 4.56 8.35 7.31 18.08 8.26 0 0 1.11 0.17 3.35 0.52h3.36l6.97 1.03c1.55 0 2.45-0.86 2.71-2.58 0-1.72-1.38-2.89-4.13-3.49l-13.81-1.03c-4.39-0.35-8.61-2.07-12.66-5.17-1.8-1.46-3.18-2.19-4.13-2.19m0.26 11.23c-3.35 3.36-8.43 5.42-15.23 6.2-2.76 0.26-7.58 0.86-14.46 1.81-1.81 0.34-2.84 1.16-3.1 2.45-1.63-0.43-4.04-3.1-7.23-8.01-0.77-1.2-1.33-2.02-1.68-2.45 2.84-5.42 6.37-8.13 10.59-8.13l7.62 0.39c3.52 0 7.66-0.82 12.39-2.46-6.11-0.77-9.17-2.62-9.17-5.55l2.59-9.81v-0.26c-5.17-5.68-7.75-11.01-7.75-16.01 0-5.68 2.8-10.84 8.39-15.49 4.91-4.13 8.52-6.32 10.84-6.58-1.89-2.33-2.84-4.74-2.84-7.23 0-3.96 1.98-6.46 5.94-7.49 0.95-0.26 1.98-0.39 3.1-0.39 4.22 0 6.97 1.59 8.26 4.78l0.65 2.71v0.39c0 2.67-0.9 5.08-2.71 7.23 2.32 0.26 5.98 2.49 10.97 6.71 5.51 4.56 8.26 9.68 8.26 15.36 0 4.82-2.58 10.16-7.74 16.01 0 1.21 0.43 2.93 1.29 5.17 0.86 2.75 1.29 4.39 1.29 4.9 0 2.93-3.06 4.78-9.17 5.55 4.65 1.64 8.78 2.46 12.4 2.46l7.61-0.39c4.22 0 7.75 2.71 10.59 8.13l-4.39 6.72c-1.46 1.89-2.97 3.14-4.52 3.74-0.34-1.72-2.84-2.8-7.48-3.23 0.6 0-0.69-0.13-3.88-0.39-10.76-1.03-17.9-3.31-21.43-6.84" />
    <path
       style="fill:#ffffff;stroke-width:0.156137"
       d="m 35.130723,47.540725 c -4.771336,-0.294779 -8.236664,-0.955393 -9.84818,-1.877409 -1.152277,-0.659266 -2.022255,-1.589226 -2.580005,-2.757887 -0.537771,-1.126796 -1.265686,-3.839695 -1.547329,-5.766804 -0.168026,-1.149699 -0.154392,-1.395508 0.142898,-2.576253 0.704274,-2.797167 2.285633,-5.37027 4.932177,-8.025372 4.9023,-4.918154 12.412177,-9.194594 15.651221,-8.912463 2.038926,0.177597 5.521979,1.661811 8.541265,3.639642 7.020702,4.599021 11.03625,9.316271 11.819732,13.885188 0.167626,0.977521 0.146517,1.262976 -0.233339,3.155357 -1.049054,5.226237 -2.141086,6.858516 -5.289315,7.906033 -1.376717,0.458078 -4.055105,0.931801 -6.678085,1.181144 -2.352124,0.223595 -12.122404,0.32111 -14.91104,0.148824 z m 8.977851,-8.89693 v -2.810458 h 2.185912 2.185911 v -2.576253 -2.576253 h -2.185911 -2.185912 v -2.810458 -2.810458 h -2.420117 -2.420116 v 2.810458 2.810458 h -2.185912 -2.185911 v 2.576253 2.576253 h 2.185911 2.185912 v 2.810458 2.810458 h 2.420116 2.420117 z"
       id="path1"
       transform="translate(571.36,212.65)" />
    <path
       style="fill:#ffffff;stroke-width:0.156137"
       d="m 28.02651,56.870038 c 0,-0.04133 0.112637,-0.382588 0.250305,-0.758354 0.394076,-1.075631 0.3548,-3.133447 -0.08104,-4.246091 -0.195744,-0.499707 -0.331471,-0.928131 -0.301615,-0.952052 0.02986,-0.02392 0.854842,0.04921 1.833303,0.162509 2.390341,0.276792 7.976857,0.524137 11.80486,0.522664 4.455586,-0.0017 11.31873,-0.360909 13.443455,-0.703588 l 0.484121,-0.07808 -0.308411,0.900485 c -0.465842,1.360137 -0.404019,3.535942 0.14081,4.955745 0.06531,0.170209 -0.04755,0.18156 -0.591049,0.05944 C 51.75786,56.07138 45.967794,55.746035 39.42448,55.87431 c -2.705066,0.05303 -5.656047,0.168754 -6.557735,0.257163 -1.720771,0.168718 -4.144901,0.546878 -4.582765,0.714903 -0.141608,0.05434 -0.257468,0.06499 -0.257468,0.02366 z"
       id="path2"
       transform="translate(571.36,212.65)" />
    <path
       style="fill:#ffffff;stroke-width:0.156137"
       d="m 31.388378,64.683933 c -2.419086,-0.219192 -4.110982,-0.690059 -4.600996,-1.280489 -0.279744,-0.337072 -0.0891,-1.221164 0.384775,-1.784329 0.6389,-0.75929 1.230964,-0.926833 4.454585,-1.260564 5.498514,-0.569242 8.358171,-0.667128 14.589675,-0.499404 6.171166,0.166101 7.392351,0.309791 8.831744,1.039188 1.114833,0.564928 1.952984,1.735335 1.623954,2.267716 -0.42674,0.690482 -3.036508,1.162885 -7.723308,1.398023 -3.882132,0.194768 -15.833432,0.276342 -17.560429,0.119859 z"
       id="path3"
       transform="translate(571.36,212.65)" />
    <path
       style="fill:#ffffff;stroke-width:0.156137"
       d="M 9.0722081,82.043754 C 7.9408802,81.705207 7.0748523,80.06145 7.43345,78.933323 c 0.4237629,-1.333134 2.0274249,-2.320035 4.440305,-2.732584 1.779918,-0.304327 5.212265,-0.549413 7.721381,-0.551343 3.387998,-0.0026 7.214986,-0.458722 10.070808,-1.200278 2.697308,-0.700397 4.024997,-1.373688 6.714709,-3.405132 3.075107,-2.322518 4.649715,-3.249236 5.342133,-3.144052 0.795297,0.120814 2.020316,0.806676 3.791017,2.12251 3.699018,2.748797 6.632256,4.119142 10.376265,4.847568 0.93861,0.182614 4.514305,0.524413 8.906598,0.851377 4.03613,0.300451 7.619463,0.624495 7.962964,0.720098 1.700647,0.473324 3.007102,1.532392 3.281028,2.65974 0.14663,0.60346 -0.184453,1.629444 -0.724191,2.24417 -0.791817,0.901831 -1.132591,0.921938 -5.250461,0.309804 -2.402664,-0.357164 -4.216614,-0.542266 -5.314056,-0.542266 -1.639173,0 -3.780756,-0.254325 -8.679181,-1.030699 -6.82075,-1.081054 -11.484868,-3.397064 -13.768906,-6.837072 l -0.60535,-0.911723 -0.239233,0.36374 c -1.877204,2.854191 -4.502528,4.662801 -8.785972,6.052739 -3.589785,1.164852 -9.262678,2.128738 -13.52699,2.298383 -1.298229,0.05165 -3.846921,0.320991 -5.906699,0.624217 -1.99272,0.293354 -3.6438639,0.527332 -3.6692086,0.51995 -0.025344,-0.0074 -0.2495357,-0.0743 -0.4982023,-0.148716 z"
       id="path4"
       transform="translate(571.36,212.65)" />
    <path
       style="fill:#ffffff;stroke-width:0.156137"
       d="m 39.935801,11.901013 c -1.426455,-0.750112 -2.08353,-1.752957 -2.101781,-3.2077945 -0.01314,-1.0472817 0.264599,-1.7812874 0.984074,-2.6007249 0.721728,-0.8220022 1.547674,-1.1665687 2.806391,-1.1707634 2.067924,-0.00689 3.715664,1.2890619 3.96755,3.1204929 0.233553,1.6981323 -0.868837,3.5768269 -2.360327,4.0224729 -1.043741,0.311863 -2.532151,0.237944 -3.295907,-0.163683 z"
       id="path5"
       transform="translate(571.36,212.65)" />
  </g>
  <metadata
     id="metadata1">
    <rdf:RDF>
      <cc:Work>
        <dc:format>image/svg+xml</dc:format>
        <dc:type
           rdf:resource="http://purl.org/dc/dcmitype/StillImage" />
        <cc:license
           rdf:resource="http://creativecommons.org/licenses/publicdomain/" />
        <dc:publisher>
          <cc:Agent
             rdf:about="http://openclipart.org/">
            <dc:title>Openclipart</dc:title>
          </cc:Agent>
        </dc:publisher>
        <dc:title>Chess symbols set </dc:title>
        <dc:date>2009-04-06T07:41:21</dc:date>
        <dc:description>Chess set by Igor Krizanovskij. From old OCAL site.</dc:description>
        <dc:source>https://openclipart.org/detail/24129/chess-symbols-set--by-anonymous-24129</dc:source>
        <dc:creator>
          <cc:Agent>
            <dc:title>Anonymous</dc:title>
          </cc:Agent>
        </dc:creator>
        <dc:subject>
          <rdf:Bag>
            <rdf:li>board</rdf:li>
            <rdf:li>chess</rdf:li>
            <rdf:li>collection</rdf:li>
            <rdf:li>figure</rdf:li>
            <rdf:li>game</rdf:li>
            <rdf:li>piece</rdf:li>
            <rdf:li>play</rdf:li>
            <rdf:li>set</rdf:li>
            <rdf:li>symbol</rdf:li>
          </rdf:Bag>
        </dc:subject>
      </cc:Work>
      <cc:License
         rdf:about="http://creativecommons.org/licenses/publicdomain/">
        <cc:permits
           rdf:resource="http://creativecommons.org/ns#Reproduction" />
        <cc:permits
           rdf:resource="http://creativecommons.org/ns#Distribution" />
        <cc:permits
           rdf:resource="http://creativecommons.org/ns#DerivativeWorks" />
      </cc:License>
    </rdf:RDF>
  </metadata>
</svg>
