<?xml version="1.0" encoding="UTF-8" standalone="no"?>
<!-- Created with Inkscape (http://www.inkscape.org/) -->

<svg
   id="svg1"
   sodipodi:docname="wN.svg"
   inkscape:export-filename="C:\joanna\Gfx\drawings_vector\admin\thumbs\Igor Krizanovskij\chess_set_symbols_igor_k_01_ok.png"
   viewBox="0 0 77.073 76.298"
   sodipodi:version="0.32"
   inkscape:export-xdpi="51.457458"
   version="1.0"
   inkscape:output_extension="org.inkscape.output.svg.inkscape"
   inkscape:export-ydpi="51.457458"
   inkscape:version="1.3 (0e150ed6c4, 2023-07-21)"
   xmlns:inkscape="http://www.inkscape.org/namespaces/inkscape"
   xmlns:sodipodi="http://sodipodi.sourceforge.net/DTD/sodipodi-0.dtd"
   xmlns="http://www.w3.org/2000/svg"
   xmlns:svg="http://www.w3.org/2000/svg"
   xmlns:rdf="http://www.w3.org/1999/02/22-rdf-syntax-ns#"
   xmlns:cc="http://creativecommons.org/ns#"
   xmlns:dc="http://purl.org/dc/elements/1.1/">
  <defs
     id="defs1" />
  <sodipodi:namedview
     id="base"
     bordercolor="#666666"
     inkscape:pageshadow="2"
     inkscape:window-width="1920"
     pagecolor="#ffffff"
     inkscape:zoom="3.9829008"
     inkscape:window-x="0"
     showgrid="false"
     borderopacity="1.0"
     inkscape:current-layer="layer1"
     inkscape:cx="148.76092"
     inkscape:cy="67.538714"
     inkscape:window-y="0"
     inkscape:window-height="1136"
     inkscape:pageopacity="0.0"
     inkscape:showpageshadow="2"
     inkscape:pagecheckerboard="0"
     inkscape:deskcolor="#d1d1d1"
     inkscape:window-maximized="1" />
  <g
     id="layer1"
     inkscape:label="Layer 1"
     inkscape:groupmode="layer"
     transform="translate(-741.36 -222.85)">
    <path
       id="path1693"
       style="fill:#000000"
       d="m750.65 268.68c1.21 0 1.81 0.82 1.81 2.45 0 2.16-1.07 3.23-3.23 3.23-0.86 0-1.29-0.69-1.29-2.06 0-2.41 0.91-3.62 2.71-3.62m9.3-15.75c-1.21 0-1.81-0.73-1.81-2.19 0-2.33 1.38-4.22 4.13-5.68 1.21-0.61 2.33-0.91 3.36-0.91 1.81 0 2.8 0.61 2.97 1.81 0 1.98-1.55 3.87-4.65 5.68-1.55 0.86-2.88 1.29-4 1.29m1.03-24.27c0.35 1.21 0.52 2.02 0.52 2.45 0 0.26-0.13 0.95-0.39 2.07 1.38 0 3.27-0.69 5.68-2.07-2.32-1.2-4.26-2.02-5.81-2.45m-15.36 44.41c0.52 2.07 1.89 3.57 4.13 4.52 0.86 0.34 1.68 0.52 2.45 0.52h0.26c0.17 0 1.12-0.52 2.84-1.55 0.52-0.35 0.95-0.52 1.29-0.52h0.52c0.43 0 0.64 0.26 0.64 0.78l-0.77 2.45c0 0.77 0.6 1.16 1.81 1.16 0.17 0 1.25-1.51 3.22-4.52 3.79-5.85 9.17-10.28 16.14-13.3 0.69-4.64 2.41-8.73 5.17-12.26 0.68-0.95 1.37-1.42 2.06-1.42 0.78 0 1.16 0.56 1.16 1.68 0 0.26-0.77 2.71-2.32 7.36-0.6 1.98-0.9 3.44-0.9 4.39 0 0.25 0.08 0.81 0.25 1.67 0 6.12-2.58 12.53-7.74 19.24-3.44 4.65-5.34 8.35-5.68 11.1h42.6c0.35-3.96 0.52-6.88 0.52-8.78 0-17.73-5.55-31.88-16.66-42.47-3.35-3.1-6.06-4.65-8.13-4.65h-7.75c-0.68-0.34-1.37-2.06-2.06-5.16-0.52-2.5-1.16-4.05-1.94-4.65-1.03 3.1-4.22 5.51-9.55 7.23-2.84 0.86-4.82 1.72-5.94 2.58-0.95 3.02-3.74 9.13-8.39 18.33-4.56 9.13-6.97 14.55-7.23 16.27m72.29 26.08h-54.09c0.35-5.94 2.58-11.62 6.72-17.04 3.18-4.3 5.07-6.93 5.68-7.88 1.2-1.89 1.93-4.17 2.19-6.84-5.59 2.41-9.94 5.85-13.04 10.33l-1.81 2.97c-1.29 2.06-2.1 3.23-2.45 3.48-0.52 0.43-1.07 0.65-1.68 0.65-2.67 0-4.47-0.9-5.42-2.71-0.17-0.26-0.26-0.56-0.26-0.91-0.86 0.44-1.72 0.65-2.58 0.65-4.13 0-7.4-2.58-9.81-7.75 0.69-3.78 4.3-12.52 10.84-26.2 0.69-1.29 1.21-2.33 1.55-3.1 2.58-5.77 3.88-10.11 3.88-13.04 0-0.43-0.26-2.84-0.78-7.23h1.03c4.65 0 9.08 1.46 13.3 4.39 2.32-4.05 4.26-6.07 5.81-6.07 2.75 1.46 4.65 3.53 5.68 6.2l1.42 4.26c0.86-0.17 1.59-0.26 2.2-0.26 6.88 0 13.68 4.39 20.39 13.17 7.84 10.24 11.75 24.27 11.75 42.09 0 4.04-0.17 7.66-0.52 10.84" />
    <path
       style="fill:#ffffff;stroke-width:0.251073"
       d="m 29.007606,70.990971 c 0.01451,-0.737994 1.339735,-3.853088 2.437591,-5.729863 0.571224,-0.976502 2.045797,-3.17967 3.27683,-4.89593 3.778321,-5.267595 5.724619,-9.053391 6.87356,-13.369963 0.42034,-1.579211 0.556951,-2.86442 0.591871,-5.568123 0.04963,-3.842453 0.0873,-4.033251 1.892457,-9.583894 0.681347,-2.095064 1.238813,-4.051448 1.238813,-4.34752 0,-0.973135 -0.465324,-1.509593 -1.309422,-1.509593 -2.020779,0 -5.708242,6.163101 -6.889296,11.514537 l -0.46331,2.099287 -2.145974,1.078844 c -5.386981,2.708192 -10.424846,7.050319 -13.53991,11.670027 -3.494514,5.182439 -3.921246,5.589868 -4.865612,4.645501 -0.333904,-0.333902 -0.332383,-0.529164 0.01359,-1.745353 0.214257,-0.753165 0.322425,-1.544337 0.240374,-1.758161 -0.264486,-0.689239 -1.614928,-0.444731 -3.399606,0.615526 -0.929761,0.552361 -1.993395,1.004293 -2.36363,1.004293 -0.9408485,0 -2.9653694,-0.807959 -3.997898,-1.595505 -1.2026684,-0.917322 -2.2737402,-2.933445 -2.0461985,-3.85165 0.3828729,-1.545012 2.3615259,-5.91424 6.7998535,-15.015318 5.050925,-10.357251 6.892924,-14.310986 7.991005,-17.152194 0.851926,-2.2043 1.258061,-2.490937 5.764632,-4.068491 5.840652,-2.044556 8.245098,-3.5835844 9.747646,-6.2392282 l 0.620799,-1.0972187 0.4479,0.6835824 c 0.246345,0.3759704 0.827474,2.1125315 1.2914,3.8590245 0.463923,1.746494 1.036498,3.570883 1.272392,4.054199 l 0.428893,0.878757 4.770393,0.125536 c 4.624222,0.12169 4.812705,0.147288 6.151295,0.835406 5.451379,2.802342 12.202267,10.621548 16.078394,18.622774 2.480833,5.121014 4.143536,10.639858 5.181525,17.19852 0.366879,2.318162 0.456479,4.347417 0.454518,10.294005 -0.0013,4.073664 -0.08802,7.717365 -0.192608,8.097113 L 71.169711,71.43035 H 50.084338 c -19.917217,0 -21.084894,-0.02434 -21.076732,-0.439379 z M 10.362302,50.76263 c 0.519826,-0.519825 0.673401,-0.9572 0.760913,-2.167042 0.154998,-2.142825 -0.287372,-2.774713 -1.9425092,-2.774713 -1.0558284,0 -1.315932,0.10538 -1.8620566,0.754412 -0.9998993,1.188315 -1.1821756,3.71823 -0.3409239,4.731875 0.4772389,0.575039 2.6077822,0.232263 3.3845767,-0.544532 z M 22.112141,29.134198 c 3.220835,-1.580889 5.12931,-3.761608 5.12931,-5.861003 0,-1.522866 -0.633714,-1.933053 -2.977182,-1.927053 -1.598721,0.0041 -2.149066,0.122078 -3.29965,0.707387 -2.718838,1.383091 -4.252163,3.456518 -4.262731,5.76425 -0.0044,0.96378 0.12371,1.333235 0.642145,1.85167 0.572212,0.572211 0.784262,0.629511 1.820281,0.491868 0.644942,-0.08569 1.971464,-0.547889 2.947827,-1.027119 z"
       id="path1"
       transform="translate(741.36,222.85)" />
    <path
       style="fill:#ffffff;stroke-width:0.251073"
       d="m 20.078987,8.1597474 c -0.0038,-1.1046486 0.07094,-2.0084519 0.166056,-2.0084519 0.186185,0 4.131729,1.6642983 4.53198,1.9116673 0.132906,0.082141 0.01153,0.3105278 -0.269725,0.5075265 -0.581742,0.4074681 -3.646648,1.5980477 -4.113325,1.5978447 -0.217169,-9.5e-5 -0.31014,-0.5929447 -0.314986,-2.0085866 z"
       id="path2"
       transform="translate(741.36,222.85)" />
  </g>
  <metadata
     id="metadata1">
    <rdf:RDF>
      <cc:Work>
        <dc:format>image/svg+xml</dc:format>
        <dc:type
           rdf:resource="http://purl.org/dc/dcmitype/StillImage" />
        <cc:license
           rdf:resource="http://creativecommons.org/licenses/publicdomain/" />
        <dc:publisher>
          <cc:Agent
             rdf:about="http://openclipart.org/">
            <dc:title>Openclipart</dc:title>
          </cc:Agent>
        </dc:publisher>
        <dc:title>Chess symbols set </dc:title>
        <dc:date>2009-04-06T07:41:21</dc:date>
        <dc:description>Chess set by Igor Krizanovskij. From old OCAL site.</dc:description>
        <dc:source>https://openclipart.org/detail/24130/chess-symbols-set--by-anonymous-24130</dc:source>
        <dc:creator>
          <cc:Agent>
            <dc:title>Anonymous</dc:title>
          </cc:Agent>
        </dc:creator>
        <dc:subject>
          <rdf:Bag>
            <rdf:li>board</rdf:li>
            <rdf:li>chess</rdf:li>
            <rdf:li>collection</rdf:li>
            <rdf:li>figure</rdf:li>
            <rdf:li>game</rdf:li>
            <rdf:li>piece</rdf:li>
            <rdf:li>play</rdf:li>
            <rdf:li>set</rdf:li>
            <rdf:li>symbol</rdf:li>
          </rdf:Bag>
        </dc:subject>
      </cc:Work>
      <cc:License
         rdf:about="http://creativecommons.org/licenses/publicdomain/">
        <cc:permits
           rdf:resource="http://creativecommons.org/ns#Reproduction" />
        <cc:permits
           rdf:resource="http://creativecommons.org/ns#Distribution" />
        <cc:permits
           rdf:resource="http://creativecommons.org/ns#DerivativeWorks" />
      </cc:License>
    </rdf:RDF>
  </metadata>
</svg>
