<?xml version="1.0" encoding="UTF-8" standalone="no"?>
<!-- Created with Inkscape (http://www.inkscape.org/) -->

<svg
   id="svg1"
   sodipodi:docname="wQ.svg"
   inkscape:export-filename="C:\joanna\Gfx\drawings_vector\admin\thumbs\Igor Krizanovskij\chess_set_symbols_igor_k_01_ok.png"
   viewBox="0 0 89.466 83.399"
   sodipodi:version="0.32"
   inkscape:export-xdpi="51.457458"
   version="1.0"
   inkscape:output_extension="org.inkscape.output.svg.inkscape"
   inkscape:export-ydpi="51.457458"
   inkscape:version="1.3 (0e150ed6c4, 2023-07-21)"
   xmlns:inkscape="http://www.inkscape.org/namespaces/inkscape"
   xmlns:sodipodi="http://sodipodi.sourceforge.net/DTD/sodipodi-0.dtd"
   xmlns="http://www.w3.org/2000/svg"
   xmlns:svg="http://www.w3.org/2000/svg"
   xmlns:rdf="http://www.w3.org/1999/02/22-rdf-syntax-ns#"
   xmlns:cc="http://creativecommons.org/ns#"
   xmlns:dc="http://purl.org/dc/elements/1.1/">
  <defs
     id="defs1" />
  <sodipodi:namedview
     id="base"
     bordercolor="#666666"
     inkscape:pageshadow="2"
     inkscape:window-width="1920"
     pagecolor="#ffffff"
     inkscape:zoom="7.3074962"
     inkscape:window-x="0"
     showgrid="false"
     borderopacity="1.0"
     inkscape:current-layer="layer1"
     inkscape:cx="49.059211"
     inkscape:cy="41.737962"
     inkscape:window-y="0"
     inkscape:window-height="1136"
     inkscape:pageopacity="0.0"
     inkscape:showpageshadow="2"
     inkscape:pagecheckerboard="0"
     inkscape:deskcolor="#d1d1d1"
     inkscape:window-maximized="1" />
  <g
     id="layer1"
     inkscape:label="Layer 1"
     inkscape:groupmode="layer"
     transform="translate(-232.79 -215.75)">
    <path
       id="path1715"
       style="fill:#000000"
       d="m274.62 270.1h5.68c1.29 0 2.84 0.05 4.65 0.13l12.78 0.78h0.13c1.55 0 2.32-0.22 2.32-0.65v-0.52c0-2.58-5.72-4.26-17.17-5.03-2.07-0.17-3.87-0.26-5.42-0.26-8.44 0-14.94 0.86-19.5 2.58-2.06 0.78-3.09 1.68-3.09 2.71v0.52c0 0.43 0.77 0.65 2.32 0.65l17.3-0.91m23.88 5.81c-6.8-0.86-13.77-1.29-20.91-1.29-7.49 0-14.46 0.43-20.92 1.29 1.04 0.86 1.55 2.54 1.55 5.04 0 1.63-0.26 2.62-0.77 2.97 5.16-0.95 11.88-1.42 20.14-1.42s14.97 0.47 20.14 1.42c-0.52-0.35-0.78-1.34-0.78-2.97 0-2.5 0.52-4.18 1.55-5.04m-20.91 11.1c-4.39 0-9.3 0.22-14.72 0.65-4.22 0.34-6.33 1.33-6.33 2.97 0 2.15 7.02 3.23 21.05 3.23s21.04-1.08 21.04-3.23c0-0.69-0.56-1.33-1.68-1.94-3.27-1.12-9.72-1.68-19.36-1.68m0-67.52c-2.15 0-3.23 1.04-3.23 3.1 0 2.24 1.08 3.36 3.23 3.36 2.06 0 3.1-1.12 3.1-3.36 0-2.06-1.04-3.1-3.1-3.1m0-3.74c3.1 0 5.25 1.42 6.45 4.26l0.65 2.58v0.39c0 0.52-0.35 1.59-1.03 3.23-1.21 3.53-1.81 6.58-1.81 9.16 0 4.22 0.94 10.46 2.84 18.72 4.65-9.81 6.97-17.21 6.97-22.2l-0.78-5.55c0-3.02 1.34-5.17 4.01-6.46 0.94-0.51 1.98-0.77 3.1-0.77 3.09 0 5.29 1.37 6.58 4.13 0.52 1.03 0.77 2.06 0.77 3.1 0 2.24-0.77 4-2.32 5.29-2.32 2.32-3.53 6.11-3.61 11.36 0 2.24 0.21 5.85 0.64 10.85 5.6-5.77 8.39-10.46 8.39-14.08l-0.64-5.03c0-2.84 1.29-4.95 3.87-6.33 1.03-0.6 2.11-0.9 3.23-0.9 2.92 0 5.12 1.33 6.58 4l0.78 2.45v0.78c0 3.53-1.98 6.2-5.94 8-0.17 3.7-1.59 10.98-4.26 21.82-0.18 0.52-0.3 0.99-0.39 1.42 0 1.21-1.38 3.27-4.13 6.2-3.7 3.7-5.55 6.58-5.55 8.65 0 0.94 1.03 3.48 3.1 7.61 0.34 0.78 0.51 1.94 0.51 3.49v0.9c-0.08 0.26-0.13 0.56-0.13 0.91v0.13l0.13 0.13c0 3.09-8.3 4.82-24.91 5.16h-3.23l-5.42-0.13h-0.13c-8.09-0.26-14.25-0.95-18.46-2.07-2.67-0.77-4.01-1.76-4.01-2.96 0.09-0.09 0.09-0.61 0-1.55-0.08-0.18-0.08-0.35 0-0.52 0-1.98 0.65-4.26 1.94-6.84 1.03-2.07 1.55-3.49 1.55-4.26 0-1.38-0.73-3.01-2.2-4.91l-6.32-7.23c-0.69-0.94-1.03-1.85-1.03-2.71-2.67-10.93-4.18-18.03-4.52-21.3-0.09-0.69-0.13-1.33-0.13-1.94-3.96-1.8-5.94-4.47-5.94-8 0-2.84 1.29-4.95 3.87-6.33 1.12-0.6 2.24-0.9 3.36-0.9 3.01 0 5.16 1.38 6.45 4.13 0.52 0.95 0.78 1.98 0.78 3.1l-0.65 5.03c0 3.79 2.76 8.48 8.27 14.08 0.43-3.79 0.64-7.41 0.64-10.85 0-4.73-0.56-7.87-1.68-9.42-0.43-0.61-1.07-1.29-1.93-2.07-1.55-1.03-2.33-2.75-2.33-5.16 0-3.02 1.42-5.21 4.26-6.59 0.95-0.43 1.98-0.64 3.1-0.64 3.01 0 5.17 1.37 6.46 4.13 0.51 0.95 0.77 1.98 0.77 3.1l-0.77 5.42v0.13c0 4.9 2.32 12.31 6.97 22.2 1.81-7.83 2.71-14.07 2.71-18.72 0-3.44-0.65-6.71-1.94-9.81-0.51-1.2-0.77-2.06-0.77-2.58 0-3.01 1.37-5.16 4.13-6.45 0.95-0.52 1.98-0.78 3.1-0.78m37.31 15.88c-1.38 0-2.37 0.69-2.97 2.07-0.09 0.34-0.13 0.68-0.13 1.03 0 1.72 0.77 2.8 2.32 3.23 0.26 0.08 0.52 0.13 0.78 0.13 2.15 0 3.22-1.12 3.22-3.36 0-2.07-1.07-3.1-3.22-3.1m-16.91-8.26c-1.47 0-2.46 0.73-2.97 2.19l-0.13 1.04c0 1.54 0.73 2.58 2.19 3.09 0.26 0.09 0.56 0.13 0.91 0.13 2.23 0 3.35-1.07 3.35-3.22 0-2.16-1.12-3.23-3.35-3.23m-41.06 0c-2.15 0-3.23 1.07-3.23 3.23 0 2.15 1.08 3.22 3.23 3.22 2.07 0 3.1-1.07 3.1-3.22 0-2.16-1.03-3.23-3.1-3.23m-16.91 8.26c-2.15 0-3.23 1.03-3.23 3.1 0 2.24 1.08 3.36 3.23 3.36 2.07 0 3.1-1.12 3.1-3.36 0-1.46-0.73-2.45-2.2-2.97-0.26-0.09-0.56-0.13-0.9-0.13m37.57 8.26c-1.21 7.58-2.76 13.04-4.65 16.4l-1.94 3.1v0.13c-0.25-0.26-1.37-1.55-3.35-3.88-2.5-2.92-5.12-8.47-7.88-16.65 0.17 1.2 0.26 2.45 0.26 3.74 0 4.05-0.73 10.29-2.19 18.72-4.65-2.75-9.17-7.14-13.56-13.17 1.46 7.41 2.58 12.27 3.36 14.59 0.51 1.72 1.16 2.71 1.93 2.97 7.06-4.04 16.4-6.07 28.02-6.07 11.7 0 21.04 2.03 28.01 6.07 1.55-0.51 3.27-6.37 5.17-17.56-4.48 6.2-8.95 10.59-13.43 13.17-1.46-7.49-2.19-13.38-2.19-17.68 0-1.12 0.08-2.72 0.25-4.78-1.72 5.16-3.7 9.77-5.94 13.81-1.2 1.81-2.53 3.53-4 5.17-0.69 0.69-1.12 1.2-1.29 1.55l-2.84-5.04c-0.08-0.34-0.21-0.69-0.39-1.03-0.68-1.9-1.8-6.41-3.35-13.56" />
    <path
       style="fill:#ffffff;stroke-width:0.136846"
       d="M 39.06947,77.977804 C 34.465049,77.85062 30.118464,77.466305 27.692097,76.971843 25.04385,76.432164 23.879588,75.763597 23.879588,74.782541 c 0,-1.205073 1.614137,-2.159484 4.379065,-2.589265 4.263227,-0.662677 18.092479,-1.046346 24.837509,-0.689075 4.86809,0.257854 8.94635,0.800637 10.720543,1.426819 1.216169,0.429233 2.074865,1.42687 1.883707,2.188502 -0.284424,1.133241 -3.15529,1.9895 -8.292742,2.473378 -4.038535,0.380376 -12.257101,0.552877 -18.3382,0.384904 z"
       id="path1"
       transform="translate(232.79,215.75)" />
    <path
       style="fill:#ffffff;stroke-width:0.136846"
       d="m 24.974354,67.998394 c 0,-0.01157 0.106012,-0.259489 0.235581,-0.550925 0.183974,-0.413806 0.235225,-0.919594 0.233954,-2.308879 -0.0022,-2.349832 -0.367777,-3.786205 -1.193061,-4.686968 -0.270585,-0.295332 -0.271457,-0.307903 -0.02136,-0.307903 0.143409,0 1.37036,-0.121971 2.726558,-0.271047 7.186667,-0.789974 15.330437,-1.092416 22.808809,-0.847068 5.843989,0.191727 8.440194,0.378248 14.918757,1.07182 l 0.776612,0.08314 -0.333355,0.503734 c -0.746906,1.128649 -0.929578,1.955957 -0.938203,4.249022 -0.0065,1.72714 0.03583,2.217924 0.227895,2.642357 0.223265,0.493389 0.223265,0.51743 0,0.449802 -0.48965,-0.148317 -4.293355,-0.631337 -6.530777,-0.829321 -3.814702,-0.337555 -7.766102,-0.483856 -13.062466,-0.483637 -7.315816,3.01e-4 -12.95591,0.320461 -17.762045,1.00826 -1.147794,0.164259 -2.086899,0.289184 -2.086899,0.277611 z"
       id="path2"
       transform="translate(232.79,215.75)" />
    <path
       style="fill:#ffffff;stroke-width:0.136846"
       d="M 23.093568,55.083874 C 22.23214,54.879373 22.043387,54.441301 22.4241,53.530126 c 0.854941,-2.046161 7.46485,-3.898792 15.937815,-4.467064 7.678265,-0.514973 19.287133,0.360705 24.450297,1.84433 1.812658,0.520863 3.263208,1.239977 3.904445,1.935637 0.481481,0.522346 0.543043,0.6665 0.543043,1.271604 0,0.799798 -0.114588,0.895303 -1.231612,1.02651 -0.418451,0.04915 -3.699693,-0.100383 -7.389672,-0.336766 -10.4486,-0.669346 -14.166394,-0.680904 -25.342084,-0.07879 -9.74677,0.525132 -9.531739,0.517581 -10.202764,0.358282 z"
       id="path3"
       transform="translate(232.79,215.75)" />
    <path
       style="fill:#ffffff;stroke-width:0.136846"
       d="m 16.249186,49.637385 c -0.729047,-0.681032 -1.364673,-2.32398 -2.209053,-5.70989 -0.772207,-3.096507 -2.398327,-10.729501 -2.305557,-10.822271 0.02408,-0.02408 0.450924,0.492084 0.948546,1.147027 2.295942,3.021791 6.210096,7.090135 8.596396,8.935034 1.410069,1.090153 3.695189,2.632891 3.77768,2.550399 0.08621,-0.08621 0.397172,-1.905192 0.941944,-5.509981 0.957653,-6.336851 1.381644,-11.081164 1.269353,-14.20361 l -0.06911,-1.921587 0.584759,1.659229 c 1.965212,5.576211 4.274235,10.484229 6.131988,13.034043 0.583669,0.801103 4.222917,5.084055 4.272381,5.028075 0.332275,-0.376052 2.188562,-3.536015 2.672328,-4.549115 1.290304,-2.702141 2.671413,-7.528557 3.498263,-12.225005 0.214203,-1.21666 0.420375,-2.212134 0.458161,-2.212166 0.03778,-3.2e-5 0.272662,0.939046 0.52195,2.08684 0.804826,3.705657 2.219934,9.274818 2.693087,10.598641 0.346574,0.96967 2.912453,5.872739 3.315178,6.334884 0.03225,0.03701 0.121798,-0.04559 0.199002,-0.183545 0.0772,-0.137955 0.512131,-0.660877 0.966504,-1.162049 2.558286,-2.821782 4.085603,-5.021557 5.571283,-8.024259 1.377082,-2.783213 2.390865,-5.136602 3.42036,-7.939998 0.386956,-1.053713 0.750323,-2.032284 0.807481,-2.174603 0.05716,-0.142319 0.07771,1.039811 0.04568,2.626955 -0.08409,4.166049 0.264064,7.973956 1.278631,13.984877 0.675815,4.003946 0.783019,4.57103 0.887123,4.692654 0.132896,0.15526 2.713094,-1.579754 4.241458,-2.852105 2.679022,-2.230263 5.339115,-5.053322 7.764166,-8.239825 0.645124,-0.847689 1.194546,-1.519659 1.220936,-1.493267 0.02639,0.02639 -0.137892,1.077097 -0.365077,2.3349 -1.419311,7.857988 -2.86504,12.852494 -4.104362,14.179193 l -0.398259,0.426337 -1.271838,-0.681181 C 66.902947,46.830671 60.406937,45.061668 53.164585,44.32878 50.273805,44.036249 42.397042,43.917972 39.343161,44.121238 c -8.797747,0.585581 -15.927413,2.341676 -21.466023,5.287257 -0.629434,0.334751 -1.161752,0.608637 -1.182929,0.608637 -0.02118,0 -0.221437,-0.170886 -0.445023,-0.379747 z"
       id="path4"
       transform="translate(232.79,215.75)" />
    <path
       style="fill:#ffffff;stroke-width:0.136846"
       d="m 64.311112,13.845224 c -1.335721,-0.514649 -2.114706,-1.573459 -2.114706,-2.874342 0,-1.978778 1.195119,-3.2292587 3.092821,-3.2360902 1.945838,-0.007 2.999628,0.9030469 3.165639,2.7338412 0.105908,1.167974 -0.237172,2.187923 -0.937627,2.787486 -0.815375,0.69793 -2.242909,0.96023 -3.206127,0.589105 z"
       id="path5"
       transform="translate(232.79,215.75)" />
    <path
       style="fill:#ffffff;stroke-width:0.136846"
       d="m 44.040584,10.053398 c -1.609017,-0.32183 -2.369518,-1.3304808 -2.369518,-3.1426862 0,-2.1134793 1.030759,-3.0964735 3.214349,-3.0653971 1.55009,0.022061 2.435557,0.6259746 2.789045,1.902208 0.533557,1.9263569 -0.374307,4.0008636 -1.857171,4.2437091 -1.027949,0.1683452 -1.213408,0.1748342 -1.776705,0.062166 z"
       id="path6"
       transform="translate(232.79,215.75)" />
    <path
       style="fill:#ffffff;stroke-width:0.136846"
       d="M 23.126936,13.898732 C 21.711392,13.55412 21.004937,12.552684 21.00659,10.89303 c 0.0021,-2.1066395 1.025112,-3.1552327 3.078267,-3.1552327 2.010451,0 3.075956,1.0545552 3.078267,3.0466327 0.0013,1.081419 -0.26428,1.865156 -0.820312,2.421188 -0.716993,0.716993 -1.990411,0.991452 -3.215876,0.693114 z"
       id="path7"
       transform="translate(232.79,215.75)" />
    <path
       style="fill:#ffffff;stroke-width:0.136846"
       d="M 5.6033343,21.89766 C 4.7949717,21.491884 4.3775908,20.921344 4.1655135,19.932225 3.8374439,18.402124 4.3327392,16.952544 5.3812417,16.374157 6.9908421,15.486251 9.1464546,16.065823 9.9273196,17.596445 10.50607,18.73089 10.181198,20.815292 9.3065455,21.579378 8.4556392,22.322719 6.7432974,22.469891 5.6033343,21.89766 Z"
       id="path8"
       transform="translate(232.79,215.75)" />
    <path
       style="fill:#ffffff;stroke-width:0.136846"
       d="m 81.113813,22.054768 c -1.246355,-0.452016 -1.968029,-1.524489 -1.985382,-2.950456 -0.02479,-2.037551 1.430359,-3.324395 3.514855,-3.108311 1.739871,0.180359 2.573621,1.15216 2.573621,2.999759 0,1.545514 -0.498666,2.472827 -1.604137,2.983034 -0.624447,0.288201 -1.814054,0.324368 -2.498957,0.07597 z"
       id="path9"
       transform="translate(232.79,215.75)" />
  </g>
  <metadata
     id="metadata1">
    <rdf:RDF>
      <cc:Work>
        <dc:format>image/svg+xml</dc:format>
        <dc:type
           rdf:resource="http://purl.org/dc/dcmitype/StillImage" />
        <cc:license
           rdf:resource="http://creativecommons.org/licenses/publicdomain/" />
        <dc:publisher>
          <cc:Agent
             rdf:about="http://openclipart.org/">
            <dc:title>Openclipart</dc:title>
          </cc:Agent>
        </dc:publisher>
        <dc:title>Chess symbols set </dc:title>
        <dc:date>2009-04-06T07:41:21</dc:date>
        <dc:description>Chess set by Igor Krizanovskij. From old OCAL site.</dc:description>
        <dc:source>https://openclipart.org/detail/24127/chess-symbols-set--by-anonymous-24127</dc:source>
        <dc:creator>
          <cc:Agent>
            <dc:title>Anonymous</dc:title>
          </cc:Agent>
        </dc:creator>
        <dc:subject>
          <rdf:Bag>
            <rdf:li>board</rdf:li>
            <rdf:li>chess</rdf:li>
            <rdf:li>collection</rdf:li>
            <rdf:li>figure</rdf:li>
            <rdf:li>game</rdf:li>
            <rdf:li>piece</rdf:li>
            <rdf:li>play</rdf:li>
            <rdf:li>set</rdf:li>
            <rdf:li>symbol</rdf:li>
          </rdf:Bag>
        </dc:subject>
      </cc:Work>
      <cc:License
         rdf:about="http://creativecommons.org/licenses/publicdomain/">
        <cc:permits
           rdf:resource="http://creativecommons.org/ns#Reproduction" />
        <cc:permits
           rdf:resource="http://creativecommons.org/ns#Distribution" />
        <cc:permits
           rdf:resource="http://creativecommons.org/ns#DerivativeWorks" />
      </cc:License>
    </rdf:RDF>
  </metadata>
</svg>
