<?xml version="1.0" encoding="UTF-8" standalone="no"?>
<!-- Created with Inkscape (http://www.inkscape.org/) -->

<svg
   id="svg1"
   sodipodi:docname="wR.svg"
   inkscape:export-filename="C:\joanna\Gfx\drawings_vector\admin\thumbs\Igor Krizanovskij\chess_set_symbols_igor_k_01_ok.png"
   viewBox="0 0 64.808 75.782"
   sodipodi:version="0.32"
   inkscape:export-xdpi="51.457458"
   version="1.0"
   inkscape:output_extension="org.inkscape.output.svg.inkscape"
   inkscape:export-ydpi="51.457458"
   inkscape:version="1.3 (0e150ed6c4, 2023-07-21)"
   xmlns:inkscape="http://www.inkscape.org/namespaces/inkscape"
   xmlns:sodipodi="http://sodipodi.sourceforge.net/DTD/sodipodi-0.dtd"
   xmlns="http://www.w3.org/2000/svg"
   xmlns:svg="http://www.w3.org/2000/svg"
   xmlns:rdf="http://www.w3.org/1999/02/22-rdf-syntax-ns#"
   xmlns:cc="http://creativecommons.org/ns#"
   xmlns:dc="http://purl.org/dc/elements/1.1/">
  <defs
     id="defs1" />
  <sodipodi:namedview
     id="base"
     bordercolor="#666666"
     inkscape:pageshadow="2"
     inkscape:window-width="1920"
     pagecolor="#ffffff"
     inkscape:zoom="7.5504933"
     inkscape:window-x="0"
     showgrid="false"
     borderopacity="1.0"
     inkscape:current-layer="layer1"
     inkscape:cx="42.182674"
     inkscape:cy="53.506438"
     inkscape:window-y="0"
     inkscape:window-height="1136"
     inkscape:pageopacity="0.0"
     inkscape:showpageshadow="2"
     inkscape:pagecheckerboard="0"
     inkscape:deskcolor="#d1d1d1"
     inkscape:window-maximized="1" />
  <g
     id="layer1"
     inkscape:label="Layer 1"
     inkscape:groupmode="layer"
     transform="translate(-412.73 -223.37)">
    <path
       id="path1705"
       style="fill:#000000"
       d="m430.41 249.06v22.85h29.44v-22.85h-29.44m-15.23 50.09l-2.45-2.45v-8.91l13.17-13.3v-25.82l-11.37-9.94v-11.75l3.75-3.61h11.62l2.19 2.19v3.36h3.75v-3.36l2.19-2.19h14.2l2.2 2.19v3.36h3.61v-3.36l2.32-2.19h11.62l3.75 3.61v11.75l-11.36 9.94v25.82l13.16 13.3v8.91l-2.45 2.45h-59.9m2.07-10.2v5.04h55.77v-5.04h-55.77m12.65-12.78l-8.52 8.26h47.51l-8.53-8.26h-30.46m10.33-47.38v3.36l-1.94 1.8h-8.39l-1.94-1.8v-3.62h-7.23l-1.68 1.81v7.23l8.78 7.1h34.6l8.78-7.1v-7.23l-1.68-1.81h-7.23v3.62l-1.94 1.8h-8.39l-1.93-1.8v-3.36h-9.81" />
    <path
       style="fill:#ffffff;stroke-width:0.132442"
       d="M 4.5692379,68.075022 V 65.624851 H 32.38199 60.194742 v 2.450171 2.450171 H 32.38199 4.5692379 Z"
       id="path1"
       transform="translate(412.73,223.37)" />
    <path
       style="fill:#ffffff;stroke-width:0.132442"
       d="m 8.9398132,60.938839 c 0,-0.0278 1.8550548,-1.845566 4.1223428,-4.039471 l 4.122343,-3.988918 h 15.241576 15.241576 l 1.85986,1.821799 c 1.022922,1.00199 2.883259,2.819752 4.134082,4.039472 l 2.274221,2.217671 h -23.498 c -12.9239,0 -23.4980008,-0.02275 -23.4980008,-0.05055 z"
       id="path2"
       transform="translate(412.73,223.37)" />
    <path
       style="fill:#ffffff;stroke-width:0.132442"
       d="M 17.680964,37.14989 V 25.759906 H 32.38199 47.083016 V 37.14989 48.539875 H 32.38199 17.680964 Z"
       id="path3"
       transform="translate(412.73,223.37)" />
    <path
       style="fill:#ffffff;stroke-width:0.132442"
       d="M 10.804761,17.717971 6.4234213,14.179053 V 10.585275 6.9914967 L 7.2298046,6.1114714 8.0361879,5.2314462 h 3.5641921 3.564192 v 1.7871703 1.7871701 l 0.960202,0.9236758 0.960202,0.9236756 4.257827,0.0042 4.257827,0.0042 1.006729,-0.9401745 1.006731,-0.9401744 V 7.1387678 5.4963296 h 4.834121 4.834121 v 1.6994048 1.699405 l 0.982928,0.8832077 0.982928,0.8832079 h 4.192682 4.192682 L 48.61648,9.7783471 49.599408,8.8951394 V 7.0632928 5.2314462 h 3.546367 3.546367 l 0.892644,0.8995374 0.892645,0.8995374 -0.03533,3.561319 -0.03533,3.561319 -4.370576,3.546598 -4.370575,3.546598 -17.239765,0.0053 -17.239764,0.0053 z"
       id="path4"
       transform="translate(412.73,223.37)" />
  </g>
  <metadata
     id="metadata1">
    <rdf:RDF>
      <cc:Work>
        <dc:format>image/svg+xml</dc:format>
        <dc:type
           rdf:resource="http://purl.org/dc/dcmitype/StillImage" />
        <cc:license
           rdf:resource="http://creativecommons.org/licenses/publicdomain/" />
        <dc:publisher>
          <cc:Agent
             rdf:about="http://openclipart.org/">
            <dc:title>Openclipart</dc:title>
          </cc:Agent>
        </dc:publisher>
        <dc:title>Chess symbols set </dc:title>
        <dc:date>2009-04-06T07:41:21</dc:date>
        <dc:description>Chess set by Igor Krizanovskij. From old OCAL site.</dc:description>
        <dc:source>https://openclipart.org/detail/24128/chess-symbols-set--by-anonymous-24128</dc:source>
        <dc:creator>
          <cc:Agent>
            <dc:title>Anonymous</dc:title>
          </cc:Agent>
        </dc:creator>
        <dc:subject>
          <rdf:Bag>
            <rdf:li>board</rdf:li>
            <rdf:li>chess</rdf:li>
            <rdf:li>collection</rdf:li>
            <rdf:li>figure</rdf:li>
            <rdf:li>game</rdf:li>
            <rdf:li>piece</rdf:li>
            <rdf:li>play</rdf:li>
            <rdf:li>set</rdf:li>
            <rdf:li>symbol</rdf:li>
          </rdf:Bag>
        </dc:subject>
      </cc:Work>
      <cc:License
         rdf:about="http://creativecommons.org/licenses/publicdomain/">
        <cc:permits
           rdf:resource="http://creativecommons.org/ns#Reproduction" />
        <cc:permits
           rdf:resource="http://creativecommons.org/ns#Distribution" />
        <cc:permits
           rdf:resource="http://creativecommons.org/ns#DerivativeWorks" />
      </cc:License>
    </rdf:RDF>
  </metadata>
</svg>
